<?xml version="1.0" encoding="UTF-8"?>
<svg id="Camada_1" data-name="Camada 1" xmlns="http://www.w3.org/2000/svg" viewBox="0 0 367.93 293.2">
  <defs>
    <style>
      .cls-1 {
        fill: #fff;
      }
    </style>
  </defs>
  <path class="cls-1" d="M367.93,150.92l-16.88,20.12c-3.05,1.98-6.26,1.94-9.22-.12L183.71,39.6,26.95,170.32c-3.18,2.62-7.17,3.01-10.44.39-3.31-5.4-13.9-13.94-15.94-19.27-1.06-2.77-.64-5.42,1.2-7.73C50.37,103.51,98.14,62.22,146.98,22.31c19.37-15.83,32.4-32.86,57.45-13.65,17.97,13.78,34.58,30.4,52.83,43.82V5.41c0-.2,2.14-2.82,2.6-3.15,1.42-1,3.89-1.4,5.63-1.56,10.3-.9,31.5-.99,41.7.04,5.14.52,8.11,2.75,8.3,8.23l.12,91.86c.31,1.06,2.22,2.51,3.11,3.36,13.55,13.02,31.2,24.09,44.9,37.02,1.79,1.69,3.2,3.15,4.3,5.4v4.31Z"/>
  <path class="cls-1" d="M213.43,293.2v-87.67h-58.92v87.67h-88.75c-.38,0-4.62-1.51-5.32-1.86-4.68-2.35-7.52-7-7.96-12.16l.34-111.74L184.2,59.78l130.92,107.67.29,113.12c-.34,5.58-7.89,12.64-13.23,12.64h-88.75Z"/>
</svg>