<?xml version="1.0" encoding="UTF-8"?><svg id="uuid-8356965e-2af8-45c7-a0cc-c1e1e3bc7f0c" xmlns="http://www.w3.org/2000/svg" viewBox="0 0 500 500"><defs><style>.uuid-0d06c3d8-bb34-42de-86a7-1d210c1bba9f{fill:#fff;}</style></defs><path class="uuid-0d06c3d8-bb34-42de-86a7-1d210c1bba9f" d="M236.03,454.61H45.2V45.2h409.6v191.54c-5.9-100.75-91.11-185.33-192.03-190.73C95.65,37.06-9.34,216.19,77.6,359.57c1.67,2.75,6.7,8.06,6.77,10.81l-24.8,75.44,77.86-24.65c21.06,12.45,42.61,22.73,66.65,28.26,9.66,2.22,22.3,4.57,31.95,5.18Z"/><path class="uuid-0d06c3d8-bb34-42de-86a7-1d210c1bba9f" d="M454.8,263.87v190.74h-190.03l28.11-4.23c81.51-17.33,145.68-84.11,159.27-166.41l2.65-20.1Z"/><path class="uuid-0d06c3d8-bb34-42de-86a7-1d210c1bba9f" d="M262.77,46.01C95.65,37.06-9.34,216.19,77.6,359.57c1.67,2.75,6.7,8.06,6.77,10.81l-24.8,75.44,77.86-24.65c21.06,12.45,42.61,22.73,66.65,28.26,9.66,2.22,22.3,4.57,31.95,5.18,9.37.59,19.31-.44,28.74,0l28.11-4.23c81.51-17.33,145.68-84.11,159.27-166.41l2.65-20.1v-27.13c-5.9-100.75-91.11-185.33-192.03-190.73ZM370.74,329.49c-1.66,5.68-4.02,11.13-8.04,15.51-31.77,34.68-86.25,14.11-121.1-4.89-40.84-22.27-103.29-87.62-109.28-134.99-3.95-31.23,15.06-73.67,52.84-64.78,4.52,1.06,7.62,8.92,9.49,12.86,5.47,11.57,11.86,26.84,16.2,38.87,3.2,8.85,4.05,10.03-1.62,18.28-4.21,6.13-17.6,16.02-16.15,23.4.74,3.75,9.53,15.96,12.28,19.68,15.84,21.44,39.62,41.92,64.47,52.08,14.34,5.86,16.9,4.24,26.05-6.96,3.96-4.85,11.09-17.6,16.78-19.14,6.27-1.7,19.6,5.63,25.86,8.51,8.1,3.74,25.36,11.24,31.93,15.97,5.74,4.13,2.09,19.42.29,25.59Z"/></svg>